<svg width="151" height="48" viewBox="0 0 151 48" fill="none" xmlns="http://www.w3.org/2000/svg">
<path d="M64.98 36.38C63.612 36.38 62.358 36.038 61.218 35.354C60.1033 34.6447 59.204 33.72 58.52 32.58C57.8613 31.4147 57.532 30.1353 57.532 28.742V26.994C57.532 26.8673 57.5953 26.804 57.722 26.804H61.978C62.0793 26.804 62.13 26.8673 62.13 26.994V28.742C62.13 29.578 62.4087 30.3 62.966 30.908C63.5233 31.4907 64.1947 31.782 64.98 31.782C65.7653 31.782 66.4367 31.478 66.994 30.87C67.5513 30.262 67.83 29.5527 67.83 28.742C67.83 27.8047 67.222 26.994 66.006 26.31C65.6007 26.082 64.9673 25.7273 64.106 25.246C63.2447 24.7647 62.434 24.3087 61.674 23.878C60.2807 23.0673 59.242 22.054 58.558 20.838C57.8993 19.5967 57.57 18.2033 57.57 16.658C57.57 15.2393 57.912 13.9727 58.596 12.858C59.28 11.718 60.1793 10.8187 61.294 10.16C62.434 9.50133 63.6627 9.172 64.98 9.172C66.3227 9.172 67.5513 9.514 68.666 10.198C69.806 10.8567 70.7053 11.756 71.364 12.896C72.048 14.0107 72.39 15.2647 72.39 16.658V19.774C72.39 19.8753 72.3393 19.926 72.238 19.926H67.982C67.8807 19.926 67.83 19.8753 67.83 19.774L67.792 16.658C67.792 15.7713 67.5133 15.0493 66.956 14.492C66.3987 13.9347 65.74 13.656 64.98 13.656C64.1947 13.656 63.5233 13.96 62.966 14.568C62.4087 15.1507 62.13 15.8473 62.13 16.658C62.13 17.494 62.3073 18.1907 62.662 18.748C63.0167 19.3053 63.6627 19.8373 64.6 20.344C64.7267 20.42 64.9673 20.5593 65.322 20.762C65.702 20.9393 66.1073 21.1547 66.538 21.408C66.9687 21.636 67.3487 21.8387 67.678 22.016C68.0327 22.1933 68.248 22.3073 68.324 22.358C69.5907 23.0673 70.5913 23.9413 71.326 24.98C72.0607 25.9933 72.428 27.2473 72.428 28.742C72.428 30.186 72.086 31.4907 71.402 32.656C70.7433 33.796 69.844 34.708 68.704 35.392C67.5893 36.0507 66.348 36.38 64.98 36.38ZM75.2608 36C75.1341 36 75.0708 35.9367 75.0708 35.81L75.1088 9.704C75.1088 9.60267 75.1594 9.552 75.2608 9.552H79.5168C79.6181 9.552 79.6688 9.60267 79.6688 9.704L79.7068 35.81C79.7068 35.9367 79.6561 36 79.5548 36H75.2608ZM83.2013 36C83.1 36 83.0493 35.9367 83.0493 35.81L83.1253 9.704C83.1253 9.60267 83.176 9.552 83.2773 9.552H87.9133C88.0146 9.552 88.1033 9.60267 88.1793 9.704L91.6373 14.72L95.0953 9.704C95.1713 9.60267 95.26 9.552 95.3613 9.552H100.035C100.137 9.552 100.187 9.60267 100.187 9.704L100.263 35.81C100.263 35.9367 100.213 36 100.111 36H95.8173C95.716 36 95.6653 35.9367 95.6653 35.81L95.6273 16.43L91.6373 22.206L87.6853 16.43L87.6473 35.81C87.6473 35.9367 87.5966 36 87.4953 36H83.2013ZM103.649 36C103.523 36 103.459 35.9367 103.459 35.81L103.535 9.704C103.535 9.60267 103.586 9.552 103.687 9.552H110.983C113.314 9.552 115.151 10.2613 116.493 11.68C117.861 13.0987 118.545 15.024 118.545 17.456C118.545 19.2547 118.191 20.8127 117.481 22.13C116.772 23.4473 115.847 24.4607 114.707 25.17C113.567 25.8793 112.326 26.234 110.983 26.234H108.095V35.81C108.095 35.9367 108.032 36 107.905 36H103.649ZM108.095 21.636H110.983C111.794 21.636 112.491 21.256 113.073 20.496C113.681 19.7107 113.985 18.6973 113.985 17.456C113.985 16.468 113.719 15.6573 113.187 15.024C112.655 14.3907 111.921 14.074 110.983 14.074L108.095 14.112V21.636ZM121.276 36C121.174 36 121.124 35.9367 121.124 35.81L121.162 9.742C121.162 9.61533 121.225 9.552 121.352 9.552H125.57C125.696 9.552 125.76 9.61533 125.76 9.742L125.722 31.326H133.55C133.676 31.326 133.74 31.3893 133.74 31.516V35.81C133.74 35.9367 133.676 36 133.55 36H121.276ZM136.379 36C136.278 36 136.227 35.9367 136.227 35.81L136.265 9.704C136.265 9.60267 136.316 9.552 136.417 9.552H148.615C148.716 9.552 148.767 9.61533 148.767 9.742V13.998C148.767 14.0993 148.716 14.15 148.615 14.15H140.825V20.078H148.615C148.716 20.078 148.767 20.1287 148.767 20.23L148.805 24.524C148.805 24.6253 148.754 24.676 148.653 24.676H140.825V31.326H148.653C148.754 31.326 148.805 31.3893 148.805 31.516V35.848C148.805 35.9493 148.754 36 148.653 36H136.379Z" fill="white"/>
<path fill-rule="evenodd" clip-rule="evenodd" d="M20.8247 42C32.3259 42 41.6494 32.598 41.6494 21C41.6494 9.40202 32.3259 0 20.8247 0C9.32354 0 0 9.40202 0 21C0 32.598 9.32354 42 20.8247 42ZM20.8246 36.754C29.4504 36.754 36.4431 29.7025 36.4431 21.004C36.4431 12.3055 29.4504 5.25401 20.8246 5.25401C12.1987 5.25401 5.20603 12.3055 5.20603 21.004C5.20603 29.7025 12.1987 36.754 20.8246 36.754Z" fill="white"/>
<ellipse cx="21.1049" cy="21.1821" rx="10.5007" ry="10.5891" fill="white"/>
</svg>
